<svg width="2000" height="1000" xmlns="http://www.w3.org/2000/svg">
    <!-- Sky background -->
    <defs>
        <linearGradient id="skyGradient" x1="0%" y1="0%" x2="0%" y2="100%">
            <stop offset="0%" style="stop-color:#4a90e2;stop-opacity:1" />
            <stop offset="100%" style="stop-color:#87ceeb;stop-opacity:1" />
        </linearGradient>
    </defs>
    <rect width="100%" height="100%" fill="url(#skyGradient)" />
    
    <!-- Ocean -->
    <defs>
        <linearGradient id="oceanGradient" x1="0%" y1="0%" x2="0%" y2="100%">
            <stop offset="0%" style="stop-color:#1a75c0;stop-opacity:0.8" />
            <stop offset="100%" style="stop-color:#0d47a1;stop-opacity:0.8" />
        </linearGradient>
    </defs>
    <rect x="0" y="550" width="2000" height="450" fill="url(#oceanGradient)" />
    
    <!-- Islands -->
    <ellipse cx="400" cy="550" rx="300" ry="100" fill="#c2b280" />
    <ellipse cx="1600" cy="600" rx="350" ry="120" fill="#c2b280" />
    
    <!-- Palm trees -->
    <g transform="translate(300, 500) scale(0.7)">
        <!-- Trunk -->
        <path d="M 0,0 C 10,-50 20,-100 10,-150 C 0,-200 10,-250 0,-300" stroke="#8B4513" stroke-width="20" fill="none" />
        <!-- Leaves -->
        <path d="M 0,-300 C -50,-280 -100,-240 -120,-200" stroke="#228B22" stroke-width="15" fill="none" />
        <path d="M 0,-300 C -40,-250 -60,-200 -50,-150" stroke="#228B22" stroke-width="15" fill="none" />
        <path d="M 0,-300 C 50,-280 100,-240 120,-200" stroke="#228B22" stroke-width="15" fill="none" />
        <path d="M 0,-300 C 40,-250 60,-200 50,-150" stroke="#228B22" stroke-width="15" fill="none" />
        <path d="M 0,-300 C -10,-250 -20,-200 0,-180" stroke="#228B22" stroke-width="15" fill="none" />
        <path d="M 0,-300 C 10,-250 20,-200 0,-180" stroke="#228B22" stroke-width="15" fill="none" />
    </g>
    
    <g transform="translate(500, 520) scale(0.5)">
        <!-- Trunk -->
        <path d="M 0,0 C 10,-50 20,-100 10,-150 C 0,-200 10,-250 0,-300" stroke="#8B4513" stroke-width="20" fill="none" />
        <!-- Leaves -->
        <path d="M 0,-300 C -50,-280 -100,-240 -120,-200" stroke="#228B22" stroke-width="15" fill="none" />
        <path d="M 0,-300 C -40,-250 -60,-200 -50,-150" stroke="#228B22" stroke-width="15" fill="none" />
        <path d="M 0,-300 C 50,-280 100,-240 120,-200" stroke="#228B22" stroke-width="15" fill="none" />
        <path d="M 0,-300 C 40,-250 60,-200 50,-150" stroke="#228B22" stroke-width="15" fill="none" />
        <path d="M 0,-300 C -10,-250 -20,-200 0,-180" stroke="#228B22" stroke-width="15" fill="none" />
        <path d="M 0,-300 C 10,-250 20,-200 0,-180" stroke="#228B22" stroke-width="15" fill="none" />
    </g>
    
    <g transform="translate(1500, 550) scale(0.8)">
        <!-- Trunk -->
        <path d="M 0,0 C 10,-50 20,-100 10,-150 C 0,-200 10,-250 0,-300" stroke="#8B4513" stroke-width="20" fill="none" />
        <!-- Leaves -->
        <path d="M 0,-300 C -50,-280 -100,-240 -120,-200" stroke="#228B22" stroke-width="15" fill="none" />
        <path d="M 0,-300 C -40,-250 -60,-200 -50,-150" stroke="#228B22" stroke-width="15" fill="none" />
        <path d="M 0,-300 C 50,-280 100,-240 120,-200" stroke="#228B22" stroke-width="15" fill="none" />
        <path d="M 0,-300 C 40,-250 60,-200 50,-150" stroke="#228B22" stroke-width="15" fill="none" />
        <path d="M 0,-300 C -10,-250 -20,-200 0,-180" stroke="#228B22" stroke-width="15" fill="none" />
        <path d="M 0,-300 C 10,-250 20,-200 0,-180" stroke="#228B22" stroke-width="15" fill="none" />
    </g>
    
    <g transform="translate(1700, 570) scale(0.6)">
        <!-- Trunk -->
        <path d="M 0,0 C 10,-50 20,-100 10,-150 C 0,-200 10,-250 0,-300" stroke="#8B4513" stroke-width="20" fill="none" />
        <!-- Leaves -->
        <path d="M 0,-300 C -50,-280 -100,-240 -120,-200" stroke="#228B22" stroke-width="15" fill="none" />
        <path d="M 0,-300 C -40,-250 -60,-200 -50,-150" stroke="#228B22" stroke-width="15" fill="none" />
        <path d="M 0,-300 C 50,-280 100,-240 120,-200" stroke="#228B22" stroke-width="15" fill="none" />
        <path d="M 0,-300 C 40,-250 60,-200 50,-150" stroke="#228B22" stroke-width="15" fill="none" />
        <path d="M 0,-300 C -10,-250 -20,-200 0,-180" stroke="#228B22" stroke-width="15" fill="none" />
        <path d="M 0,-300 C 10,-250 20,-200 0,-180" stroke="#228B22" stroke-width="15" fill="none" />
    </g>
    
    <!-- Sun -->
    <circle cx="1800" cy="150" r="80" fill="#FDB813" />
    <circle cx="1800" cy="150" r="70" fill="#FFC107" />
    
    <!-- Clouds -->
    <g fill="#FFFFFF" opacity="0.8">
        <ellipse cx="200" cy="150" rx="100" ry="50" />
        <ellipse cx="250" cy="130" rx="80" ry="40" />
        <ellipse cx="300" cy="150" rx="90" ry="45" />
        
        <ellipse cx="800" cy="100" rx="120" ry="60" />
        <ellipse cx="900" cy="80" rx="100" ry="50" />
        <ellipse cx="1000" cy="100" rx="110" ry="55" />
        
        <ellipse cx="1400" cy="200" rx="90" ry="45" />
        <ellipse cx="1500" cy="180" rx="70" ry="35" />
        <ellipse cx="1600" cy="200" rx="80" ry="40" />
    </g>
    
    <!-- Ocean waves -->
    <path d="M 0,650 Q 100,620 200,650 Q 300,680 400,650 Q 500,620 600,650 Q 700,680 800,650 Q 900,620 1000,650 Q 1100,680 1200,650 Q 1300,620 1400,650 Q 1500,680 1600,650 Q 1700,620 1800,650 Q 1900,680 2000,650 L 2000,1000 L 0,1000 Z" fill="#1e88e5" opacity="0.5" />
    <path d="M 0,700 Q 100,670 200,700 Q 300,730 400,700 Q 500,670 600,700 Q 700,730 800,700 Q 900,670 1000,700 Q 1100,730 1200,700 Q 1300,670 1400,700 Q 1500,730 1600,700 Q 1700,670 1800,700 Q 1900,730 2000,700 L 2000,1000 L 0,1000 Z" fill="#0d47a1" opacity="0.3" />
</svg>
